<svg class="rich-terminal" viewBox="0 0 1482 782.0" xmlns="http://www.w3.org/2000/svg">
    <!-- Generated with Rich https://www.textualize.io -->
    <style>

    @font-face {
        font-family: "Fira Code";
        src: local("FiraCode-Regular"),
                url("https://cdnjs.cloudflare.com/ajax/libs/firacode/6.2.0/woff2/FiraCode-Regular.woff2") format("woff2"),
                url("https://cdnjs.cloudflare.com/ajax/libs/firacode/6.2.0/woff/FiraCode-Regular.woff") format("woff");
        font-style: normal;
        font-weight: 400;
    }
    @font-face {
        font-family: "Fira Code";
        src: local("FiraCode-Bold"),
                url("https://cdnjs.cloudflare.com/ajax/libs/firacode/6.2.0/woff2/FiraCode-Bold.woff2") format("woff2"),
                url("https://cdnjs.cloudflare.com/ajax/libs/firacode/6.2.0/woff/FiraCode-Bold.woff") format("woff");
        font-style: bold;
        font-weight: 700;
    }

    .terminal-816640097-matrix {
        font-family: Fira Code, monospace;
        font-size: 20px;
        line-height: 24.4px;
        font-variant-east-asian: full-width;
    }

    .terminal-816640097-title {
        font-size: 18px;
        font-weight: bold;
        font-family: arial;
    }

    .terminal-816640097-r1 { fill: #c5c8c6 }
.terminal-816640097-r2 { fill: #e0e0e0 }
.terminal-816640097-r3 { fill: #c5c6c7 }
.terminal-816640097-r4 { fill: #cdd6f4 }
.terminal-816640097-r5 { fill: #f5c2e7;font-weight: bold }
.terminal-816640097-r6 { fill: #45475a }
.terminal-816640097-r7 { fill: #89b4fa;font-weight: bold }
.terminal-816640097-r8 { fill: #1e1e1e }
.terminal-816640097-r9 { fill: #2d2d2d }
.terminal-816640097-r10 { fill: #11111b;font-weight: bold }
.terminal-816640097-r11 { fill: #0d0d0d }
.terminal-816640097-r12 { fill: #cca8f5;font-weight: bold }
.terminal-816640097-r13 { fill: #495259 }
.terminal-816640097-r14 { fill: #ffa62b;font-weight: bold }
    </style>

    <defs>
    <clipPath id="terminal-816640097-clip-terminal">
      <rect x="0" y="0" width="1463.0" height="731.0" />
    </clipPath>
    <clipPath id="terminal-816640097-line-0">
    <rect x="0" y="1.5" width="1464" height="24.65"/>
            </clipPath>
<clipPath id="terminal-816640097-line-1">
    <rect x="0" y="25.9" width="1464" height="24.65"/>
            </clipPath>
<clipPath id="terminal-816640097-line-2">
    <rect x="0" y="50.3" width="1464" height="24.65"/>
            </clipPath>
<clipPath id="terminal-816640097-line-3">
    <rect x="0" y="74.7" width="1464" height="24.65"/>
            </clipPath>
<clipPath id="terminal-816640097-line-4">
    <rect x="0" y="99.1" width="1464" height="24.65"/>
            </clipPath>
<clipPath id="terminal-816640097-line-5">
    <rect x="0" y="123.5" width="1464" height="24.65"/>
            </clipPath>
<clipPath id="terminal-816640097-line-6">
    <rect x="0" y="147.9" width="1464" height="24.65"/>
            </clipPath>
<clipPath id="terminal-816640097-line-7">
    <rect x="0" y="172.3" width="1464" height="24.65"/>
            </clipPath>
<clipPath id="terminal-816640097-line-8">
    <rect x="0" y="196.7" width="1464" height="24.65"/>
            </clipPath>
<clipPath id="terminal-816640097-line-9">
    <rect x="0" y="221.1" width="1464" height="24.65"/>
            </clipPath>
<clipPath id="terminal-816640097-line-10">
    <rect x="0" y="245.5" width="1464" height="24.65"/>
            </clipPath>
<clipPath id="terminal-816640097-line-11">
    <rect x="0" y="269.9" width="1464" height="24.65"/>
            </clipPath>
<clipPath id="terminal-816640097-line-12">
    <rect x="0" y="294.3" width="1464" height="24.65"/>
            </clipPath>
<clipPath id="terminal-816640097-line-13">
    <rect x="0" y="318.7" width="1464" height="24.65"/>
            </clipPath>
<clipPath id="terminal-816640097-line-14">
    <rect x="0" y="343.1" width="1464" height="24.65"/>
            </clipPath>
<clipPath id="terminal-816640097-line-15">
    <rect x="0" y="367.5" width="1464" height="24.65"/>
            </clipPath>
<clipPath id="terminal-816640097-line-16">
    <rect x="0" y="391.9" width="1464" height="24.65"/>
            </clipPath>
<clipPath id="terminal-816640097-line-17">
    <rect x="0" y="416.3" width="1464" height="24.65"/>
            </clipPath>
<clipPath id="terminal-816640097-line-18">
    <rect x="0" y="440.7" width="1464" height="24.65"/>
            </clipPath>
<clipPath id="terminal-816640097-line-19">
    <rect x="0" y="465.1" width="1464" height="24.65"/>
            </clipPath>
<clipPath id="terminal-816640097-line-20">
    <rect x="0" y="489.5" width="1464" height="24.65"/>
            </clipPath>
<clipPath id="terminal-816640097-line-21">
    <rect x="0" y="513.9" width="1464" height="24.65"/>
            </clipPath>
<clipPath id="terminal-816640097-line-22">
    <rect x="0" y="538.3" width="1464" height="24.65"/>
            </clipPath>
<clipPath id="terminal-816640097-line-23">
    <rect x="0" y="562.7" width="1464" height="24.65"/>
            </clipPath>
<clipPath id="terminal-816640097-line-24">
    <rect x="0" y="587.1" width="1464" height="24.65"/>
            </clipPath>
<clipPath id="terminal-816640097-line-25">
    <rect x="0" y="611.5" width="1464" height="24.65"/>
            </clipPath>
<clipPath id="terminal-816640097-line-26">
    <rect x="0" y="635.9" width="1464" height="24.65"/>
            </clipPath>
<clipPath id="terminal-816640097-line-27">
    <rect x="0" y="660.3" width="1464" height="24.65"/>
            </clipPath>
<clipPath id="terminal-816640097-line-28">
    <rect x="0" y="684.7" width="1464" height="24.65"/>
            </clipPath>
    </defs>

    <rect fill="#292929" stroke="rgba(255,255,255,0.35)" stroke-width="1" x="1" y="1" width="1480" height="780" rx="8"/><text class="terminal-816640097-title" fill="#c5c8c6" text-anchor="middle" x="740" y="27">Gestão&#160;de&#160;Dados&#160;Fórmula&#160;1&#160;(SCC-541)</text>
            <g transform="translate(26,22)">
            <circle cx="0" cy="0" r="7" fill="#ff5f57"/>
            <circle cx="22" cy="0" r="7" fill="#febc2e"/>
            <circle cx="44" cy="0" r="7" fill="#28c840"/>
            </g>
        
    <g transform="translate(9, 41)" clip-path="url(#terminal-816640097-clip-terminal)">
    <rect fill="#242f38" x="0" y="1.5" width="12.2" height="24.65" shape-rendering="crispEdges"/><rect fill="#242f38" x="12.2" y="1.5" width="12.2" height="24.65" shape-rendering="crispEdges"/><rect fill="#242f38" x="24.4" y="1.5" width="61" height="24.65" shape-rendering="crispEdges"/><rect fill="#242f38" x="85.4" y="1.5" width="12.2" height="24.65" shape-rendering="crispEdges"/><rect fill="#242f38" x="97.6" y="1.5" width="402.6" height="24.65" shape-rendering="crispEdges"/><rect fill="#242f38" x="500.2" y="1.5" width="427" height="24.65" shape-rendering="crispEdges"/><rect fill="#242f38" x="927.2" y="1.5" width="414.8" height="24.65" shape-rendering="crispEdges"/><rect fill="#2c363f" x="1342" y="1.5" width="12.2" height="24.65" shape-rendering="crispEdges"/><rect fill="#2c363f" x="1354.2" y="1.5" width="97.6" height="24.65" shape-rendering="crispEdges"/><rect fill="#2c363f" x="1451.8" y="1.5" width="12.2" height="24.65" shape-rendering="crispEdges"/><rect fill="#1e1e2e" x="0" y="25.9" width="1464" height="24.65" shape-rendering="crispEdges"/><rect fill="#1e1e2e" x="0" y="50.3" width="12.2" height="24.65" shape-rendering="crispEdges"/><rect fill="#313244" x="12.2" y="50.3" width="12.2" height="24.65" shape-rendering="crispEdges"/><rect fill="#313244" x="24.4" y="50.3" width="671" height="24.65" shape-rendering="crispEdges"/><rect fill="#313244" x="695.4" y="50.3" width="12.2" height="24.65" shape-rendering="crispEdges"/><rect fill="#1e1e2e" x="707.6" y="50.3" width="744.2" height="24.65" shape-rendering="crispEdges"/><rect fill="#1e1e2e" x="1451.8" y="50.3" width="12.2" height="24.65" shape-rendering="crispEdges"/><rect fill="#1e1e2e" x="0" y="74.7" width="12.2" height="24.65" shape-rendering="crispEdges"/><rect fill="#313244" x="12.2" y="74.7" width="12.2" height="24.65" shape-rendering="crispEdges"/><rect fill="#313244" x="24.4" y="74.7" width="671" height="24.65" shape-rendering="crispEdges"/><rect fill="#313244" x="695.4" y="74.7" width="12.2" height="24.65" shape-rendering="crispEdges"/><rect fill="#1e1e2e" x="707.6" y="74.7" width="744.2" height="24.65" shape-rendering="crispEdges"/><rect fill="#1e1e2e" x="1451.8" y="74.7" width="12.2" height="24.65" shape-rendering="crispEdges"/><rect fill="#1e1e2e" x="0" y="99.1" width="12.2" height="24.65" shape-rendering="crispEdges"/><rect fill="#313244" x="12.2" y="99.1" width="12.2" height="24.65" shape-rendering="crispEdges"/><rect fill="#313244" x="24.4" y="99.1" width="12.2" height="24.65" shape-rendering="crispEdges"/><rect fill="#313244" x="36.6" y="99.1" width="646.6" height="24.65" shape-rendering="crispEdges"/><rect fill="#313244" x="683.2" y="99.1" width="12.2" height="24.65" shape-rendering="crispEdges"/><rect fill="#313244" x="695.4" y="99.1" width="12.2" height="24.65" shape-rendering="crispEdges"/><rect fill="#1e1e2e" x="707.6" y="99.1" width="744.2" height="24.65" shape-rendering="crispEdges"/><rect fill="#1e1e2e" x="1451.8" y="99.1" width="12.2" height="24.65" shape-rendering="crispEdges"/><rect fill="#1e1e2e" x="0" y="123.5" width="12.2" height="24.65" shape-rendering="crispEdges"/><rect fill="#313244" x="12.2" y="123.5" width="12.2" height="24.65" shape-rendering="crispEdges"/><rect fill="#313244" x="24.4" y="123.5" width="671" height="24.65" shape-rendering="crispEdges"/><rect fill="#313244" x="695.4" y="123.5" width="12.2" height="24.65" shape-rendering="crispEdges"/><rect fill="#1e1e2e" x="707.6" y="123.5" width="744.2" height="24.65" shape-rendering="crispEdges"/><rect fill="#1e1e2e" x="1451.8" y="123.5" width="12.2" height="24.65" shape-rendering="crispEdges"/><rect fill="#1e1e2e" x="0" y="147.9" width="12.2" height="24.65" shape-rendering="crispEdges"/><rect fill="#313244" x="12.2" y="147.9" width="12.2" height="24.65" shape-rendering="crispEdges"/><rect fill="#313244" x="24.4" y="147.9" width="671" height="24.65" shape-rendering="crispEdges"/><rect fill="#313244" x="695.4" y="147.9" width="12.2" height="24.65" shape-rendering="crispEdges"/><rect fill="#1e1e2e" x="707.6" y="147.9" width="744.2" height="24.65" shape-rendering="crispEdges"/><rect fill="#1e1e2e" x="1451.8" y="147.9" width="12.2" height="24.65" shape-rendering="crispEdges"/><rect fill="#1e1e2e" x="0" y="172.3" width="12.2" height="24.65" shape-rendering="crispEdges"/><rect fill="#1e1e2e" x="12.2" y="172.3" width="1439.6" height="24.65" shape-rendering="crispEdges"/><rect fill="#1e1e2e" x="1451.8" y="172.3" width="12.2" height="24.65" shape-rendering="crispEdges"/><rect fill="#1e1e2e" x="0" y="196.7" width="12.2" height="24.65" shape-rendering="crispEdges"/><rect fill="#181825" x="12.2" y="196.7" width="12.2" height="24.65" shape-rendering="crispEdges"/><rect fill="#181825" x="24.4" y="196.7" width="439.2" height="24.65" shape-rendering="crispEdges"/><rect fill="#181825" x="463.6" y="196.7" width="12.2" height="24.65" shape-rendering="crispEdges"/><rect fill="#1e1e2e" x="475.8" y="196.7" width="12.2" height="24.65" shape-rendering="crispEdges"/><rect fill="#181825" x="488" y="196.7" width="12.2" height="24.65" shape-rendering="crispEdges"/><rect fill="#181825" x="500.2" y="196.7" width="439.2" height="24.65" shape-rendering="crispEdges"/><rect fill="#181825" x="939.4" y="196.7" width="12.2" height="24.65" shape-rendering="crispEdges"/><rect fill="#1e1e2e" x="951.6" y="196.7" width="12.2" height="24.65" shape-rendering="crispEdges"/><rect fill="#181825" x="963.8" y="196.7" width="12.2" height="24.65" shape-rendering="crispEdges"/><rect fill="#181825" x="976" y="196.7" width="451.4" height="24.65" shape-rendering="crispEdges"/><rect fill="#181825" x="1427.4" y="196.7" width="12.2" height="24.65" shape-rendering="crispEdges"/><rect fill="#1e1e2e" x="1439.6" y="196.7" width="12.2" height="24.65" shape-rendering="crispEdges"/><rect fill="#1e1e2e" x="1451.8" y="196.7" width="12.2" height="24.65" shape-rendering="crispEdges"/><rect fill="#1e1e2e" x="0" y="221.1" width="12.2" height="24.65" shape-rendering="crispEdges"/><rect fill="#181825" x="12.2" y="221.1" width="12.2" height="24.65" shape-rendering="crispEdges"/><rect fill="#181825" x="24.4" y="221.1" width="439.2" height="24.65" shape-rendering="crispEdges"/><rect fill="#181825" x="463.6" y="221.1" width="12.2" height="24.65" shape-rendering="crispEdges"/><rect fill="#1e1e2e" x="475.8" y="221.1" width="12.2" height="24.65" shape-rendering="crispEdges"/><rect fill="#181825" x="488" y="221.1" width="12.2" height="24.65" shape-rendering="crispEdges"/><rect fill="#181825" x="500.2" y="221.1" width="439.2" height="24.65" shape-rendering="crispEdges"/><rect fill="#181825" x="939.4" y="221.1" width="12.2" height="24.65" shape-rendering="crispEdges"/><rect fill="#1e1e2e" x="951.6" y="221.1" width="12.2" height="24.65" shape-rendering="crispEdges"/><rect fill="#181825" x="963.8" y="221.1" width="12.2" height="24.65" shape-rendering="crispEdges"/><rect fill="#181825" x="976" y="221.1" width="451.4" height="24.65" shape-rendering="crispEdges"/><rect fill="#181825" x="1427.4" y="221.1" width="12.2" height="24.65" shape-rendering="crispEdges"/><rect fill="#1e1e2e" x="1439.6" y="221.1" width="12.2" height="24.65" shape-rendering="crispEdges"/><rect fill="#1e1e2e" x="1451.8" y="221.1" width="12.2" height="24.65" shape-rendering="crispEdges"/><rect fill="#1e1e2e" x="0" y="245.5" width="12.2" height="24.65" shape-rendering="crispEdges"/><rect fill="#181825" x="12.2" y="245.5" width="12.2" height="24.65" shape-rendering="crispEdges"/><rect fill="#181825" x="24.4" y="245.5" width="12.2" height="24.65" shape-rendering="crispEdges"/><rect fill="#181825" x="36.6" y="245.5" width="73.2" height="24.65" shape-rendering="crispEdges"/><rect fill="#181825" x="109.8" y="245.5" width="256.2" height="24.65" shape-rendering="crispEdges"/><rect fill="#181825" x="366" y="245.5" width="85.4" height="24.65" shape-rendering="crispEdges"/><rect fill="#181825" x="451.4" y="245.5" width="12.2" height="24.65" shape-rendering="crispEdges"/><rect fill="#181825" x="463.6" y="245.5" width="12.2" height="24.65" shape-rendering="crispEdges"/><rect fill="#1e1e2e" x="475.8" y="245.5" width="12.2" height="24.65" shape-rendering="crispEdges"/><rect fill="#181825" x="488" y="245.5" width="12.2" height="24.65" shape-rendering="crispEdges"/><rect fill="#181825" x="500.2" y="245.5" width="12.2" height="24.65" shape-rendering="crispEdges"/><rect fill="#181825" x="512.4" y="245.5" width="97.6" height="24.65" shape-rendering="crispEdges"/><rect fill="#181825" x="610" y="245.5" width="219.6" height="24.65" shape-rendering="crispEdges"/><rect fill="#181825" x="829.6" y="245.5" width="97.6" height="24.65" shape-rendering="crispEdges"/><rect fill="#181825" x="927.2" y="245.5" width="12.2" height="24.65" shape-rendering="crispEdges"/><rect fill="#181825" x="939.4" y="245.5" width="12.2" height="24.65" shape-rendering="crispEdges"/><rect fill="#1e1e2e" x="951.6" y="245.5" width="12.2" height="24.65" shape-rendering="crispEdges"/><rect fill="#181825" x="963.8" y="245.5" width="12.2" height="24.65" shape-rendering="crispEdges"/><rect fill="#181825" x="976" y="245.5" width="12.2" height="24.65" shape-rendering="crispEdges"/><rect fill="#181825" x="988.2" y="245.5" width="109.8" height="24.65" shape-rendering="crispEdges"/><rect fill="#181825" x="1098" y="245.5" width="207.4" height="24.65" shape-rendering="crispEdges"/><rect fill="#181825" x="1305.4" y="245.5" width="109.8" height="24.65" shape-rendering="crispEdges"/><rect fill="#181825" x="1415.2" y="245.5" width="12.2" height="24.65" shape-rendering="crispEdges"/><rect fill="#181825" x="1427.4" y="245.5" width="12.2" height="24.65" shape-rendering="crispEdges"/><rect fill="#1e1e2e" x="1439.6" y="245.5" width="12.2" height="24.65" shape-rendering="crispEdges"/><rect fill="#1e1e2e" x="1451.8" y="245.5" width="12.2" height="24.65" shape-rendering="crispEdges"/><rect fill="#1e1e2e" x="0" y="269.9" width="12.2" height="24.65" shape-rendering="crispEdges"/><rect fill="#181825" x="12.2" y="269.9" width="12.2" height="24.65" shape-rendering="crispEdges"/><rect fill="#181825" x="24.4" y="269.9" width="439.2" height="24.65" shape-rendering="crispEdges"/><rect fill="#181825" x="463.6" y="269.9" width="12.2" height="24.65" shape-rendering="crispEdges"/><rect fill="#1e1e2e" x="475.8" y="269.9" width="12.2" height="24.65" shape-rendering="crispEdges"/><rect fill="#181825" x="488" y="269.9" width="12.2" height="24.65" shape-rendering="crispEdges"/><rect fill="#181825" x="500.2" y="269.9" width="439.2" height="24.65" shape-rendering="crispEdges"/><rect fill="#181825" x="939.4" y="269.9" width="12.2" height="24.65" shape-rendering="crispEdges"/><rect fill="#1e1e2e" x="951.6" y="269.9" width="12.2" height="24.65" shape-rendering="crispEdges"/><rect fill="#181825" x="963.8" y="269.9" width="12.2" height="24.65" shape-rendering="crispEdges"/><rect fill="#181825" x="976" y="269.9" width="451.4" height="24.65" shape-rendering="crispEdges"/><rect fill="#181825" x="1427.4" y="269.9" width="12.2" height="24.65" shape-rendering="crispEdges"/><rect fill="#1e1e2e" x="1439.6" y="269.9" width="12.2" height="24.65" shape-rendering="crispEdges"/><rect fill="#1e1e2e" x="1451.8" y="269.9" width="12.2" height="24.65" shape-rendering="crispEdges"/><rect fill="#1e1e2e" x="0" y="294.3" width="12.2" height="24.65" shape-rendering="crispEdges"/><rect fill="#181825" x="12.2" y="294.3" width="12.2" height="24.65" shape-rendering="crispEdges"/><rect fill="#181825" x="24.4" y="294.3" width="439.2" height="24.65" shape-rendering="crispEdges"/><rect fill="#181825" x="463.6" y="294.3" width="12.2" height="24.65" shape-rendering="crispEdges"/><rect fill="#1e1e2e" x="475.8" y="294.3" width="12.2" height="24.65" shape-rendering="crispEdges"/><rect fill="#181825" x="488" y="294.3" width="12.2" height="24.65" shape-rendering="crispEdges"/><rect fill="#181825" x="500.2" y="294.3" width="439.2" height="24.65" shape-rendering="crispEdges"/><rect fill="#181825" x="939.4" y="294.3" width="12.2" height="24.65" shape-rendering="crispEdges"/><rect fill="#1e1e2e" x="951.6" y="294.3" width="12.2" height="24.65" shape-rendering="crispEdges"/><rect fill="#181825" x="963.8" y="294.3" width="12.2" height="24.65" shape-rendering="crispEdges"/><rect fill="#181825" x="976" y="294.3" width="451.4" height="24.65" shape-rendering="crispEdges"/><rect fill="#181825" x="1427.4" y="294.3" width="12.2" height="24.65" shape-rendering="crispEdges"/><rect fill="#1e1e2e" x="1439.6" y="294.3" width="12.2" height="24.65" shape-rendering="crispEdges"/><rect fill="#1e1e2e" x="1451.8" y="294.3" width="12.2" height="24.65" shape-rendering="crispEdges"/><rect fill="#1e1e2e" x="0" y="318.7" width="12.2" height="24.65" shape-rendering="crispEdges"/><rect fill="#1e1e2e" x="12.2" y="318.7" width="1439.6" height="24.65" shape-rendering="crispEdges"/><rect fill="#1e1e2e" x="1451.8" y="318.7" width="12.2" height="24.65" shape-rendering="crispEdges"/><rect fill="#1e1e2e" x="0" y="343.1" width="12.2" height="24.65" shape-rendering="crispEdges"/><rect fill="#1e1e2e" x="12.2" y="343.1" width="207.4" height="24.65" shape-rendering="crispEdges"/><rect fill="#1e1e2e" x="219.6" y="343.1" width="1232.2" height="24.65" shape-rendering="crispEdges"/><rect fill="#1e1e2e" x="1451.8" y="343.1" width="12.2" height="24.65" shape-rendering="crispEdges"/><rect fill="#1e1e2e" x="0" y="367.5" width="12.2" height="24.65" shape-rendering="crispEdges"/><rect fill="#fab387" x="12.2" y="367.5" width="353.8" height="24.65" shape-rendering="crispEdges"/><rect fill="#fab387" x="366" y="367.5" width="366" height="24.65" shape-rendering="crispEdges"/><rect fill="#1e1e2e" x="732" y="367.5" width="719.8" height="24.65" shape-rendering="crispEdges"/><rect fill="#1e1e2e" x="1451.8" y="367.5" width="12.2" height="24.65" shape-rendering="crispEdges"/><rect fill="#1e1e2e" x="0" y="391.9" width="12.2" height="24.65" shape-rendering="crispEdges"/><rect fill="#fab387" x="12.2" y="391.9" width="353.8" height="24.65" shape-rendering="crispEdges"/><rect fill="#fab387" x="366" y="391.9" width="366" height="24.65" shape-rendering="crispEdges"/><rect fill="#1e1e2e" x="732" y="391.9" width="719.8" height="24.65" shape-rendering="crispEdges"/><rect fill="#1e1e2e" x="1451.8" y="391.9" width="12.2" height="24.65" shape-rendering="crispEdges"/><rect fill="#1e1e2e" x="0" y="416.3" width="12.2" height="24.65" shape-rendering="crispEdges"/><rect fill="#fab387" x="12.2" y="416.3" width="353.8" height="24.65" shape-rendering="crispEdges"/><rect fill="#fab387" x="366" y="416.3" width="366" height="24.65" shape-rendering="crispEdges"/><rect fill="#1e1e2e" x="732" y="416.3" width="719.8" height="24.65" shape-rendering="crispEdges"/><rect fill="#1e1e2e" x="1451.8" y="416.3" width="12.2" height="24.65" shape-rendering="crispEdges"/><rect fill="#1e1e2e" x="0" y="440.7" width="12.2" height="24.65" shape-rendering="crispEdges"/><rect fill="#1e1e2e" x="12.2" y="440.7" width="1439.6" height="24.65" shape-rendering="crispEdges"/><rect fill="#1e1e2e" x="1451.8" y="440.7" width="12.2" height="24.65" shape-rendering="crispEdges"/><rect fill="#1e1e2e" x="0" y="465.1" width="12.2" height="24.65" shape-rendering="crispEdges"/><rect fill="#1e1e2e" x="12.2" y="465.1" width="1439.6" height="24.65" shape-rendering="crispEdges"/><rect fill="#1e1e2e" x="1451.8" y="465.1" width="12.2" height="24.65" shape-rendering="crispEdges"/><rect fill="#1e1e2e" x="0" y="489.5" width="12.2" height="24.65" shape-rendering="crispEdges"/><rect fill="#1e1e2e" x="12.2" y="489.5" width="1439.6" height="24.65" shape-rendering="crispEdges"/><rect fill="#1e1e2e" x="1451.8" y="489.5" width="12.2" height="24.65" shape-rendering="crispEdges"/><rect fill="#1e1e2e" x="0" y="513.9" width="12.2" height="24.65" shape-rendering="crispEdges"/><rect fill="#1e1e2e" x="12.2" y="513.9" width="1439.6" height="24.65" shape-rendering="crispEdges"/><rect fill="#1e1e2e" x="1451.8" y="513.9" width="12.2" height="24.65" shape-rendering="crispEdges"/><rect fill="#1e1e2e" x="0" y="538.3" width="12.2" height="24.65" shape-rendering="crispEdges"/><rect fill="#1e1e2e" x="12.2" y="538.3" width="1439.6" height="24.65" shape-rendering="crispEdges"/><rect fill="#1e1e2e" x="1451.8" y="538.3" width="12.2" height="24.65" shape-rendering="crispEdges"/><rect fill="#1e1e2e" x="0" y="562.7" width="12.2" height="24.65" shape-rendering="crispEdges"/><rect fill="#1e1e2e" x="12.2" y="562.7" width="1439.6" height="24.65" shape-rendering="crispEdges"/><rect fill="#1e1e2e" x="1451.8" y="562.7" width="12.2" height="24.65" shape-rendering="crispEdges"/><rect fill="#1e1e2e" x="0" y="587.1" width="1464" height="24.65" shape-rendering="crispEdges"/><rect fill="#11111b" x="0" y="611.5" width="12.2" height="24.65" shape-rendering="crispEdges"/><rect fill="#11111b" x="12.2" y="611.5" width="1439.6" height="24.65" shape-rendering="crispEdges"/><rect fill="#11111b" x="1451.8" y="611.5" width="12.2" height="24.65" shape-rendering="crispEdges"/><rect fill="#11111b" x="0" y="635.9" width="12.2" height="24.65" shape-rendering="crispEdges"/><rect fill="#11111b" x="12.2" y="635.9" width="12.2" height="24.65" shape-rendering="crispEdges"/><rect fill="#11111b" x="24.4" y="635.9" width="451.4" height="24.65" shape-rendering="crispEdges"/><rect fill="#cca8f5" x="475.8" y="635.9" width="256.2" height="24.65" shape-rendering="crispEdges"/><rect fill="#11111b" x="732" y="635.9" width="24.4" height="24.65" shape-rendering="crispEdges"/><rect fill="#f38ba8" x="756.4" y="635.9" width="195.2" height="24.65" shape-rendering="crispEdges"/><rect fill="#11111b" x="951.6" y="635.9" width="488" height="24.65" shape-rendering="crispEdges"/><rect fill="#11111b" x="1439.6" y="635.9" width="12.2" height="24.65" shape-rendering="crispEdges"/><rect fill="#11111b" x="1451.8" y="635.9" width="12.2" height="24.65" shape-rendering="crispEdges"/><rect fill="#11111b" x="0" y="660.3" width="12.2" height="24.65" shape-rendering="crispEdges"/><rect fill="#11111b" x="12.2" y="660.3" width="12.2" height="24.65" shape-rendering="crispEdges"/><rect fill="#11111b" x="24.4" y="660.3" width="451.4" height="24.65" shape-rendering="crispEdges"/><rect fill="#11111b" x="475.8" y="660.3" width="256.2" height="24.65" shape-rendering="crispEdges"/><rect fill="#11111b" x="732" y="660.3" width="24.4" height="24.65" shape-rendering="crispEdges"/><rect fill="#f38ba8" x="756.4" y="660.3" width="183" height="24.65" shape-rendering="crispEdges"/><rect fill="#f38ba8" x="939.4" y="660.3" width="12.2" height="24.65" shape-rendering="crispEdges"/><rect fill="#11111b" x="951.6" y="660.3" width="488" height="24.65" shape-rendering="crispEdges"/><rect fill="#11111b" x="1439.6" y="660.3" width="12.2" height="24.65" shape-rendering="crispEdges"/><rect fill="#11111b" x="1451.8" y="660.3" width="12.2" height="24.65" shape-rendering="crispEdges"/><rect fill="#11111b" x="0" y="684.7" width="12.2" height="24.65" shape-rendering="crispEdges"/><rect fill="#11111b" x="12.2" y="684.7" width="1439.6" height="24.65" shape-rendering="crispEdges"/><rect fill="#11111b" x="1451.8" y="684.7" width="12.2" height="24.65" shape-rendering="crispEdges"/><rect fill="#242f38" x="0" y="709.1" width="1317.6" height="24.65" shape-rendering="crispEdges"/><rect fill="#242f38" x="1317.6" y="709.1" width="12.2" height="24.65" shape-rendering="crispEdges"/><rect fill="#242f38" x="1329.8" y="709.1" width="24.4" height="24.65" shape-rendering="crispEdges"/><rect fill="#242f38" x="1354.2" y="709.1" width="97.6" height="24.65" shape-rendering="crispEdges"/><rect fill="#242f38" x="1451.8" y="709.1" width="12.2" height="24.65" shape-rendering="crispEdges"/>
    <g class="terminal-816640097-matrix">
    <text class="terminal-816640097-r2" x="12.2" y="20" textLength="12.2" clip-path="url(#terminal-816640097-line-0)">⭘</text><text class="terminal-816640097-r2" x="500.2" y="20" textLength="427" clip-path="url(#terminal-816640097-line-0)">Gestão&#160;de&#160;Dados&#160;Fórmula&#160;1&#160;(SCC-541)</text><text class="terminal-816640097-r3" x="1354.2" y="20" textLength="97.6" clip-path="url(#terminal-816640097-line-0)">20:02:03</text><text class="terminal-816640097-r1" x="1464" y="20" textLength="12.2" clip-path="url(#terminal-816640097-line-0)">
</text><text class="terminal-816640097-r1" x="1464" y="44.4" textLength="12.2" clip-path="url(#terminal-816640097-line-1)">
</text><text class="terminal-816640097-r4" x="12.2" y="68.8" textLength="12.2" clip-path="url(#terminal-816640097-line-2)">╭</text><text class="terminal-816640097-r4" x="24.4" y="68.8" textLength="671" clip-path="url(#terminal-816640097-line-2)">───────────────────────────────────────────────────────</text><text class="terminal-816640097-r4" x="695.4" y="68.8" textLength="12.2" clip-path="url(#terminal-816640097-line-2)">╮</text><text class="terminal-816640097-r1" x="1464" y="68.8" textLength="12.2" clip-path="url(#terminal-816640097-line-2)">
</text><text class="terminal-816640097-r4" x="12.2" y="93.2" textLength="12.2" clip-path="url(#terminal-816640097-line-3)">│</text><text class="terminal-816640097-r4" x="695.4" y="93.2" textLength="12.2" clip-path="url(#terminal-816640097-line-3)">│</text><text class="terminal-816640097-r1" x="1464" y="93.2" textLength="12.2" clip-path="url(#terminal-816640097-line-3)">
</text><text class="terminal-816640097-r4" x="12.2" y="117.6" textLength="12.2" clip-path="url(#terminal-816640097-line-4)">│</text><text class="terminal-816640097-r5" x="36.6" y="117.6" textLength="646.6" clip-path="url(#terminal-816640097-line-4)">DASHBOARD&#160;ESCUDERIA&#160;—&#160;Ferrari&#160;|&#160;Pilotos&#160;Associados:&#160;0</text><text class="terminal-816640097-r4" x="695.4" y="117.6" textLength="12.2" clip-path="url(#terminal-816640097-line-4)">│</text><text class="terminal-816640097-r1" x="1464" y="117.6" textLength="12.2" clip-path="url(#terminal-816640097-line-4)">
</text><text class="terminal-816640097-r4" x="12.2" y="142" textLength="12.2" clip-path="url(#terminal-816640097-line-5)">│</text><text class="terminal-816640097-r4" x="695.4" y="142" textLength="12.2" clip-path="url(#terminal-816640097-line-5)">│</text><text class="terminal-816640097-r1" x="1464" y="142" textLength="12.2" clip-path="url(#terminal-816640097-line-5)">
</text><text class="terminal-816640097-r4" x="12.2" y="166.4" textLength="12.2" clip-path="url(#terminal-816640097-line-6)">╰</text><text class="terminal-816640097-r4" x="24.4" y="166.4" textLength="671" clip-path="url(#terminal-816640097-line-6)">───────────────────────────────────────────────────────</text><text class="terminal-816640097-r4" x="695.4" y="166.4" textLength="12.2" clip-path="url(#terminal-816640097-line-6)">╯</text><text class="terminal-816640097-r1" x="1464" y="166.4" textLength="12.2" clip-path="url(#terminal-816640097-line-6)">
</text><text class="terminal-816640097-r1" x="1464" y="190.8" textLength="12.2" clip-path="url(#terminal-816640097-line-7)">
</text><text class="terminal-816640097-r6" x="12.2" y="215.2" textLength="12.2" clip-path="url(#terminal-816640097-line-8)">╭</text><text class="terminal-816640097-r6" x="24.4" y="215.2" textLength="439.2" clip-path="url(#terminal-816640097-line-8)">────────────────────────────────────</text><text class="terminal-816640097-r6" x="463.6" y="215.2" textLength="12.2" clip-path="url(#terminal-816640097-line-8)">╮</text><text class="terminal-816640097-r6" x="488" y="215.2" textLength="12.2" clip-path="url(#terminal-816640097-line-8)">╭</text><text class="terminal-816640097-r6" x="500.2" y="215.2" textLength="439.2" clip-path="url(#terminal-816640097-line-8)">────────────────────────────────────</text><text class="terminal-816640097-r6" x="939.4" y="215.2" textLength="12.2" clip-path="url(#terminal-816640097-line-8)">╮</text><text class="terminal-816640097-r6" x="963.8" y="215.2" textLength="12.2" clip-path="url(#terminal-816640097-line-8)">╭</text><text class="terminal-816640097-r6" x="976" y="215.2" textLength="451.4" clip-path="url(#terminal-816640097-line-8)">─────────────────────────────────────</text><text class="terminal-816640097-r6" x="1427.4" y="215.2" textLength="12.2" clip-path="url(#terminal-816640097-line-8)">╮</text><text class="terminal-816640097-r1" x="1464" y="215.2" textLength="12.2" clip-path="url(#terminal-816640097-line-8)">
</text><text class="terminal-816640097-r6" x="12.2" y="239.6" textLength="12.2" clip-path="url(#terminal-816640097-line-9)">│</text><text class="terminal-816640097-r6" x="463.6" y="239.6" textLength="12.2" clip-path="url(#terminal-816640097-line-9)">│</text><text class="terminal-816640097-r6" x="488" y="239.6" textLength="12.2" clip-path="url(#terminal-816640097-line-9)">│</text><text class="terminal-816640097-r6" x="939.4" y="239.6" textLength="12.2" clip-path="url(#terminal-816640097-line-9)">│</text><text class="terminal-816640097-r6" x="963.8" y="239.6" textLength="12.2" clip-path="url(#terminal-816640097-line-9)">│</text><text class="terminal-816640097-r6" x="1427.4" y="239.6" textLength="12.2" clip-path="url(#terminal-816640097-line-9)">│</text><text class="terminal-816640097-r1" x="1464" y="239.6" textLength="12.2" clip-path="url(#terminal-816640097-line-9)">
</text><text class="terminal-816640097-r6" x="12.2" y="264" textLength="12.2" clip-path="url(#terminal-816640097-line-10)">│</text><text class="terminal-816640097-r7" x="109.8" y="264" textLength="256.2" clip-path="url(#terminal-816640097-line-10)">Vitórias&#160;(1ª&#160;Posição)</text><text class="terminal-816640097-r6" x="463.6" y="264" textLength="12.2" clip-path="url(#terminal-816640097-line-10)">│</text><text class="terminal-816640097-r6" x="488" y="264" textLength="12.2" clip-path="url(#terminal-816640097-line-10)">│</text><text class="terminal-816640097-r7" x="610" y="264" textLength="219.6" clip-path="url(#terminal-816640097-line-10)">Pilotos&#160;Diferentes</text><text class="terminal-816640097-r6" x="939.4" y="264" textLength="12.2" clip-path="url(#terminal-816640097-line-10)">│</text><text class="terminal-816640097-r6" x="963.8" y="264" textLength="12.2" clip-path="url(#terminal-816640097-line-10)">│</text><text class="terminal-816640097-r7" x="1098" y="264" textLength="207.4" clip-path="url(#terminal-816640097-line-10)">Anos&#160;de&#160;Atividade</text><text class="terminal-816640097-r6" x="1427.4" y="264" textLength="12.2" clip-path="url(#terminal-816640097-line-10)">│</text><text class="terminal-816640097-r1" x="1464" y="264" textLength="12.2" clip-path="url(#terminal-816640097-line-10)">
</text><text class="terminal-816640097-r6" x="12.2" y="288.4" textLength="12.2" clip-path="url(#terminal-816640097-line-11)">│</text><text class="terminal-816640097-r6" x="463.6" y="288.4" textLength="12.2" clip-path="url(#terminal-816640097-line-11)">│</text><text class="terminal-816640097-r6" x="488" y="288.4" textLength="12.2" clip-path="url(#terminal-816640097-line-11)">│</text><text class="terminal-816640097-r6" x="939.4" y="288.4" textLength="12.2" clip-path="url(#terminal-816640097-line-11)">│</text><text class="terminal-816640097-r6" x="963.8" y="288.4" textLength="12.2" clip-path="url(#terminal-816640097-line-11)">│</text><text class="terminal-816640097-r6" x="1427.4" y="288.4" textLength="12.2" clip-path="url(#terminal-816640097-line-11)">│</text><text class="terminal-816640097-r1" x="1464" y="288.4" textLength="12.2" clip-path="url(#terminal-816640097-line-11)">
</text><text class="terminal-816640097-r6" x="12.2" y="312.8" textLength="12.2" clip-path="url(#terminal-816640097-line-12)">╰</text><text class="terminal-816640097-r6" x="24.4" y="312.8" textLength="439.2" clip-path="url(#terminal-816640097-line-12)">────────────────────────────────────</text><text class="terminal-816640097-r6" x="463.6" y="312.8" textLength="12.2" clip-path="url(#terminal-816640097-line-12)">╯</text><text class="terminal-816640097-r6" x="488" y="312.8" textLength="12.2" clip-path="url(#terminal-816640097-line-12)">╰</text><text class="terminal-816640097-r6" x="500.2" y="312.8" textLength="439.2" clip-path="url(#terminal-816640097-line-12)">────────────────────────────────────</text><text class="terminal-816640097-r6" x="939.4" y="312.8" textLength="12.2" clip-path="url(#terminal-816640097-line-12)">╯</text><text class="terminal-816640097-r6" x="963.8" y="312.8" textLength="12.2" clip-path="url(#terminal-816640097-line-12)">╰</text><text class="terminal-816640097-r6" x="976" y="312.8" textLength="451.4" clip-path="url(#terminal-816640097-line-12)">─────────────────────────────────────</text><text class="terminal-816640097-r6" x="1427.4" y="312.8" textLength="12.2" clip-path="url(#terminal-816640097-line-12)">╯</text><text class="terminal-816640097-r1" x="1464" y="312.8" textLength="12.2" clip-path="url(#terminal-816640097-line-12)">
</text><text class="terminal-816640097-r1" x="1464" y="337.2" textLength="12.2" clip-path="url(#terminal-816640097-line-13)">
</text><text class="terminal-816640097-r7" x="12.2" y="361.6" textLength="207.4" clip-path="url(#terminal-816640097-line-14)">Ações&#160;Disponíveis</text><text class="terminal-816640097-r1" x="1464" y="361.6" textLength="12.2" clip-path="url(#terminal-816640097-line-14)">
</text><text class="terminal-816640097-r8" x="12.2" y="386" textLength="353.8" clip-path="url(#terminal-816640097-line-15)">▔▔▔▔▔▔▔▔▔▔▔▔▔▔▔▔▔▔▔▔▔▔▔▔▔▔▔▔▔</text><text class="terminal-816640097-r9" x="366" y="386" textLength="366" clip-path="url(#terminal-816640097-line-15)">▔▔▔▔▔▔▔▔▔▔▔▔▔▔▔▔▔▔▔▔▔▔▔▔▔▔▔▔▔▔</text><text class="terminal-816640097-r1" x="1464" y="386" textLength="12.2" clip-path="url(#terminal-816640097-line-15)">
</text><text class="terminal-816640097-r10" x="12.2" y="410.4" textLength="353.8" clip-path="url(#terminal-816640097-line-16)">&#160;Buscar&#160;Piloto&#160;por&#160;Sobrenome&#160;</text><text class="terminal-816640097-r10" x="366" y="410.4" textLength="366" clip-path="url(#terminal-816640097-line-16)">&#160;Importar&#160;Pilotos&#160;por&#160;Arquivo&#160;</text><text class="terminal-816640097-r1" x="1464" y="410.4" textLength="12.2" clip-path="url(#terminal-816640097-line-16)">
</text><text class="terminal-816640097-r11" x="12.2" y="434.8" textLength="353.8" clip-path="url(#terminal-816640097-line-17)">▁▁▁▁▁▁▁▁▁▁▁▁▁▁▁▁▁▁▁▁▁▁▁▁▁▁▁▁▁</text><text class="terminal-816640097-r11" x="366" y="434.8" textLength="366" clip-path="url(#terminal-816640097-line-17)">▁▁▁▁▁▁▁▁▁▁▁▁▁▁▁▁▁▁▁▁▁▁▁▁▁▁▁▁▁▁</text><text class="terminal-816640097-r1" x="1464" y="434.8" textLength="12.2" clip-path="url(#terminal-816640097-line-17)">
</text><text class="terminal-816640097-r1" x="1464" y="459.2" textLength="12.2" clip-path="url(#terminal-816640097-line-18)">
</text><text class="terminal-816640097-r1" x="1464" y="483.6" textLength="12.2" clip-path="url(#terminal-816640097-line-19)">
</text><text class="terminal-816640097-r1" x="1464" y="508" textLength="12.2" clip-path="url(#terminal-816640097-line-20)">
</text><text class="terminal-816640097-r1" x="1464" y="532.4" textLength="12.2" clip-path="url(#terminal-816640097-line-21)">
</text><text class="terminal-816640097-r1" x="1464" y="556.8" textLength="12.2" clip-path="url(#terminal-816640097-line-22)">
</text><text class="terminal-816640097-r1" x="1464" y="581.2" textLength="12.2" clip-path="url(#terminal-816640097-line-23)">
</text><text class="terminal-816640097-r1" x="1464" y="605.6" textLength="12.2" clip-path="url(#terminal-816640097-line-24)">
</text><text class="terminal-816640097-r6" x="0" y="630" textLength="12.2" clip-path="url(#terminal-816640097-line-25)">╭</text><text class="terminal-816640097-r6" x="12.2" y="630" textLength="1439.6" clip-path="url(#terminal-816640097-line-25)">──────────────────────────────────────────────────────────────────────────────────────────────────────────────────────</text><text class="terminal-816640097-r6" x="1451.8" y="630" textLength="12.2" clip-path="url(#terminal-816640097-line-25)">╮</text><text class="terminal-816640097-r1" x="1464" y="630" textLength="12.2" clip-path="url(#terminal-816640097-line-25)">
</text><text class="terminal-816640097-r6" x="0" y="654.4" textLength="12.2" clip-path="url(#terminal-816640097-line-26)">│</text><text class="terminal-816640097-r9" x="475.8" y="654.4" textLength="256.2" clip-path="url(#terminal-816640097-line-26)">▔▔▔▔▔▔▔▔▔▔▔▔▔▔▔▔▔▔▔▔▔</text><text class="terminal-816640097-r9" x="756.4" y="654.4" textLength="195.2" clip-path="url(#terminal-816640097-line-26)">▔▔▔▔▔▔▔▔▔▔▔▔▔▔▔▔</text><text class="terminal-816640097-r6" x="1451.8" y="654.4" textLength="12.2" clip-path="url(#terminal-816640097-line-26)">│</text><text class="terminal-816640097-r1" x="1464" y="654.4" textLength="12.2" clip-path="url(#terminal-816640097-line-26)">
</text><text class="terminal-816640097-r6" x="0" y="678.8" textLength="12.2" clip-path="url(#terminal-816640097-line-27)">│</text><text class="terminal-816640097-r12" x="475.8" y="678.8" textLength="256.2" clip-path="url(#terminal-816640097-line-27)">&#160;Relatórios&#160;(Tela&#160;3)&#160;</text><text class="terminal-816640097-r10" x="756.4" y="678.8" textLength="183" clip-path="url(#terminal-816640097-line-27)">&#160;Sair&#160;(Logout)&#160;</text><text class="terminal-816640097-r6" x="1451.8" y="678.8" textLength="12.2" clip-path="url(#terminal-816640097-line-27)">│</text><text class="terminal-816640097-r1" x="1464" y="678.8" textLength="12.2" clip-path="url(#terminal-816640097-line-27)">
</text><text class="terminal-816640097-r6" x="0" y="703.2" textLength="12.2" clip-path="url(#terminal-816640097-line-28)">╰</text><text class="terminal-816640097-r6" x="12.2" y="703.2" textLength="1439.6" clip-path="url(#terminal-816640097-line-28)">──────────────────────────────────────────────────────────────────────────────────────────────────────────────────────</text><text class="terminal-816640097-r6" x="1451.8" y="703.2" textLength="12.2" clip-path="url(#terminal-816640097-line-28)">╯</text><text class="terminal-816640097-r1" x="1464" y="703.2" textLength="12.2" clip-path="url(#terminal-816640097-line-28)">
</text><text class="terminal-816640097-r13" x="1317.6" y="727.6" textLength="12.2" clip-path="url(#terminal-816640097-line-29)">▏</text><text class="terminal-816640097-r14" x="1329.8" y="727.6" textLength="24.4" clip-path="url(#terminal-816640097-line-29)">^p</text><text class="terminal-816640097-r2" x="1354.2" y="727.6" textLength="97.6" clip-path="url(#terminal-816640097-line-29)">&#160;palette</text>
    </g>
    </g>
</svg>
